<?xml version="1.0" standalone="no"?><?xml-stylesheet type="text/css" href="https://wps.processon.com/themes/default/wps/mind/icons/icons.css" ?><!DOCTYPE svg PUBLIC "-//W3C//DTD SVG 1.1//EN" "http://www.w3.org/Graphics/SVG/1.1/DTD/svg11.dtd"><svg id="SvgjsSvg2050" width="1330.78125" height="1144.1335227272727" xmlns="http://www.w3.org/2000/svg" version="1.1" xmlns:xlink="http://www.w3.org/1999/xlink" xmlns:svgjs="http://svgjs.com/svgjs"><defs id="SvgjsDefs2051"><pattern patternUnits="userSpaceOnUse" id="pattern_mark_0" width="300" height="300"><text x="150" y="100" fill="rgba(229,229,229,0.8)" font-size="18" transform="rotate(-45, 150, 150)" style="dominant-baseline: middle; text-anchor: middle;"></text></pattern><pattern patternUnits="userSpaceOnUse" id="pattern_mark_1" width="300" height="300"><text x="150" y="200" fill="rgba(229,229,229,0.8)" font-size="18" transform="rotate(-45, 150, 150)" style="dominant-baseline: middle; text-anchor: middle;"></text></pattern><pattern id="SvgjsPattern2302" x="0" y="0" width="26" height="26" patternUnits="userSpaceOnUse"><image id="SvgjsImage2303" xlink:href="https://wps.processon.com/v5_editor/static/assets/images/designer/ios_icons/svg/check4.svg" width="26" height="26" preserveAspectRatio="none" crossOrigin="anonymous" x="0" y="0"></image></pattern><pattern id="SvgjsPattern2306" x="0" y="0" width="26" height="26" patternUnits="userSpaceOnUse"><image id="SvgjsImage2307" xlink:href="https://wps.processon.com/v5_editor/static/assets/images/designer/ios_icons/svg/check4.svg" width="26" height="26" preserveAspectRatio="none" crossOrigin="anonymous" x="0" y="0"></image></pattern><pattern id="SvgjsPattern2310" x="0" y="0" width="26" height="26" patternUnits="userSpaceOnUse"><image id="SvgjsImage2311" xlink:href="https://wps.processon.com/v5_editor/static/assets/images/designer/ios_icons/svg/check4.svg" width="26" height="26" preserveAspectRatio="none" crossOrigin="anonymous" x="0" y="0"></image></pattern><pattern id="SvgjsPattern2314" x="0" y="0" width="26" height="26" patternUnits="userSpaceOnUse"><image id="SvgjsImage2315" xlink:href="https://wps.processon.com/v5_editor/static/assets/images/designer/ios_icons/svg/check4.svg" width="26" height="26" preserveAspectRatio="none" crossOrigin="anonymous" x="0" y="0"></image></pattern></defs><rect id="svgbackgroundid" width="1330.78125" height="1144.1335227272727" fill="transparent"></rect><rect id="SvgjsRect2053" width="1330.78125" height="1144.1335227272727" fill="url(#pattern_mark_0)"></rect><rect id="SvgjsRect2054" width="1330.78125" height="1144.1335227272727" fill="url(#pattern_mark_1)"></rect><g id="SvgjsG2055" transform="translate(1040.0113636363637,169.70955328645584)"><path id="SvgjsPath2056" d="M 0 0L 199 0L 199 568L 0 568Z" stroke="rgba(33,41,48,1)" stroke-width="2" fill-opacity="1" fill="#ffffff"></path><g id="SvgjsG2057"><text id="SvgjsText2058" font-family="微软雅黑" text-anchor="middle" font-size="13px" width="179px" fill="#323232" font-weight="400" align="middle" lineHeight="125%" anchor="middle" family="微软雅黑" size="13px" weight="400" font-style="" opacity="1" y="273.375" transform="rotate(0)"></text></g></g><g id="SvgjsG2059" transform="translate(25.011363636363683,169.59943181818187)"><path id="SvgjsPath2060" d="M 0 0L 199 0L 199 568L 0 568Z" stroke="rgba(33,41,48,1)" stroke-width="2" fill-opacity="1" fill="#ffffff"></path><g id="SvgjsG2061"><text id="SvgjsText2062" font-family="微软雅黑" text-anchor="middle" font-size="13px" width="179px" fill="#323232" font-weight="400" align="middle" lineHeight="125%" anchor="middle" family="微软雅黑" size="13px" weight="400" font-style="" opacity="1" y="273.375" transform="rotate(0)"></text></g></g><g id="SvgjsG2063" transform="translate(652.3703379953381,929.1448863636364)"><path id="SvgjsPath2064" d="M 0 0L 460.25641025641016 0L 460.25641025641016 190L 0 190Z" stroke="rgba(33,41,48,1)" stroke-width="2" fill-opacity="1" fill="#ffffff"></path><g id="SvgjsG2065"><text id="SvgjsText2066" font-family="微软雅黑" text-anchor="middle" font-size="13px" width="441px" fill="#323232" font-weight="400" align="middle" lineHeight="125%" anchor="middle" family="微软雅黑" size="13px" weight="400" font-style="" opacity="1" y="84.375" transform="rotate(0)"></text></g></g><g id="SvgjsG2067" transform="translate(143.39597902097904,929.1448863636364)"><path id="SvgjsPath2068" d="M 0 0L 489.1025641025641 0L 489.1025641025641 189.51378830066744L 0 189.51378830066744Z" stroke="rgba(33,41,48,1)" stroke-width="2" fill-opacity="1" fill="#ffffff"></path><g id="SvgjsG2069"><text id="SvgjsText2070" font-family="微软雅黑" text-anchor="middle" font-size="13px" width="470px" fill="#323232" font-weight="400" align="middle" lineHeight="125%" anchor="middle" family="微软雅黑" size="13px" weight="400" font-style="" opacity="1" y="84.13189415033372" transform="rotate(0)"></text></g></g><g id="SvgjsG2071" transform="translate(270.0113636363637,25.01322492163007)"><path id="SvgjsPath2072" d="M 0 0L 719 0L 719 856L 0 856Z" stroke="rgba(33,41,48,1)" stroke-width="2" fill-opacity="1" fill="#ffffff"></path><g id="SvgjsG2073"><text id="SvgjsText2074" font-family="微软雅黑" text-anchor="middle" font-size="13px" width="699px" fill="#323232" font-weight="400" align="middle" lineHeight="125%" anchor="middle" family="微软雅黑" size="13px" weight="400" font-style="" opacity="1" y="417.375" transform="rotate(0)"></text></g></g><g id="SvgjsG2075" transform="translate(237.51136363636368,309.1448863636364)"><path id="SvgjsPath2076" d="M 0 0L 51 0L 51 84L 0 84Z" stroke="rgba(0,0,0,1)" stroke-width="2" fill-opacity="1" fill="#ffffff"></path><g id="SvgjsG2077"><text id="SvgjsText2078" font-family="微软雅黑" text-anchor="middle" font-size="13px" width="31px" fill="#323232" font-weight="400" align="middle" lineHeight="125%" anchor="middle" family="微软雅黑" size="13px" weight="400" font-style="" opacity="1" y="31.375" transform="rotate(0)"></text></g></g><g id="SvgjsG2079" transform="translate(273.5113636363637,309.1448863636364)"><path id="SvgjsPath2080" d="M 0 0L 17 0L 17 84L 0 84Z" stroke="rgba(255,255,255,1)" stroke-width="6" fill-opacity="1" fill="#ffffff"></path><g id="SvgjsG2081"><text id="SvgjsText2082" font-family="微软雅黑" text-anchor="middle" font-size="13px" width="0" fill="#323232" font-weight="400" align="middle" lineHeight="125%" anchor="middle" family="微软雅黑" size="13px" weight="400" font-style="" opacity="1" y="31.375" transform="rotate(0)"></text></g></g><g id="SvgjsG2083" transform="translate(237.51136363636368,489.1448863636364)"><path id="SvgjsPath2084" d="M 0 0L 51 0L 51 84L 0 84Z" stroke="rgba(0,0,0,1)" stroke-width="2" fill-opacity="1" fill="#ffffff"></path><g id="SvgjsG2085"><text id="SvgjsText2086" font-family="微软雅黑" text-anchor="middle" font-size="13px" width="31px" fill="#323232" font-weight="400" align="middle" lineHeight="125%" anchor="middle" family="微软雅黑" size="13px" weight="400" font-style="" opacity="1" y="31.375" transform="rotate(0)"></text></g></g><g id="SvgjsG2087" transform="translate(273.5113636363637,489.1448863636364)"><path id="SvgjsPath2088" d="M 0 0L 17 0L 17 84L 0 84Z" stroke="rgba(255,255,255,1)" stroke-width="6" fill-opacity="1" fill="#ffffff"></path><g id="SvgjsG2089"><text id="SvgjsText2090" font-family="微软雅黑" text-anchor="middle" font-size="13px" width="0" fill="#323232" font-weight="400" align="middle" lineHeight="125%" anchor="middle" family="微软雅黑" size="13px" weight="400" font-style="" opacity="1" y="31.375" transform="rotate(0)"></text></g></g><g id="SvgjsG2091" transform="matrix(-1,1.2246467991473532e-16,-1.2246467991473532e-16,-1,1027.5113525390625,393.1448974609375)"><path id="SvgjsPath2092" d="M 0 0L 51 0L 51 84L 0 84Z" stroke="rgba(0,0,0,1)" stroke-width="2" fill-opacity="1" fill="#ffffff"></path><g id="SvgjsG2093"><text id="SvgjsText2094" font-family="微软雅黑" text-anchor="middle" font-size="13px" width="31px" fill="#323232" font-weight="400" align="middle" lineHeight="125%" anchor="middle" family="微软雅黑" size="13px" weight="400" font-style="" opacity="1" y="31.375" transform="rotate(0)"></text></g></g><g id="SvgjsG2095" transform="matrix(-1,1.2246467991473532e-16,-1.2246467991473532e-16,-1,985.5113525390625,393.1448974609375)"><path id="SvgjsPath2096" d="M 0 0L 17 0L 17 84L 0 84Z" stroke="rgba(255,255,255,1)" stroke-width="6" fill-opacity="1" fill="#ffffff"></path><g id="SvgjsG2097"><text id="SvgjsText2098" font-family="微软雅黑" text-anchor="middle" font-size="13px" width="0" fill="#323232" font-weight="400" align="middle" lineHeight="125%" anchor="middle" family="微软雅黑" size="13px" weight="400" font-style="" opacity="1" y="31.375" transform="rotate(0)"></text></g></g><g id="SvgjsG2099" transform="matrix(-1,1.2246467991473532e-16,-1.2246467991473532e-16,-1,1027.5113525390625,573.1448974609375)"><path id="SvgjsPath2100" d="M 0 0L 51 0L 51 84L 0 84Z" stroke="rgba(0,0,0,1)" stroke-width="2" fill-opacity="1" fill="#ffffff"></path><g id="SvgjsG2101"><text id="SvgjsText2102" font-family="微软雅黑" text-anchor="middle" font-size="13px" width="31px" fill="#323232" font-weight="400" align="middle" lineHeight="125%" anchor="middle" family="微软雅黑" size="13px" weight="400" font-style="" opacity="1" y="31.375" transform="rotate(0)"></text></g></g><g id="SvgjsG2103" transform="matrix(-1,1.2246467991473532e-16,-1.2246467991473532e-16,-1,985.5113525390625,573.1448974609375)"><path id="SvgjsPath2104" d="M 0 0L 17 0L 17 84L 0 84Z" stroke="rgba(255,255,255,1)" stroke-width="6" fill-opacity="1" fill="#ffffff"></path><g id="SvgjsG2105"><text id="SvgjsText2106" font-family="微软雅黑" text-anchor="middle" font-size="13px" width="0" fill="#323232" font-weight="400" align="middle" lineHeight="125%" anchor="middle" family="微软雅黑" size="13px" weight="400" font-style="" opacity="1" y="31.375" transform="rotate(0)"></text></g></g><g id="SvgjsG2107" transform="matrix(-1.8369701987210297e-16,-1,1,-1.8369701987210297e-16,316.3382968744206,918.0994459629627)"><path id="SvgjsPath2108" d="M 0 0L 50.0462633451958 0L 50.0462633451958 83.66666666666715L 0 83.66666666666715Z" stroke="rgba(0,0,0,1)" stroke-width="2" fill-opacity="1" fill="#ffffff"></path><g id="SvgjsG2109"><text id="SvgjsText2110" font-family="微软雅黑" text-anchor="middle" font-size="13px" width="31px" fill="#323232" font-weight="400" align="middle" lineHeight="125%" anchor="middle" family="微软雅黑" size="13px" weight="400" font-style="" opacity="1" y="31.208333333333577" transform="rotate(0)"></text></g></g><g id="SvgjsG2111" transform="matrix(-1.8369701987210297e-16,-1,1,-1.8369701987210297e-16,316.33829966190984,877.9200359086552)"><path id="SvgjsPath2112" d="M 0 0L 16.98724792408065 0L 16.98724792408065 83.66666666666715L 0 83.66666666666715Z" stroke="rgba(255,255,255,1)" stroke-width="6" fill-opacity="1" fill="#ffffff"></path><g id="SvgjsG2113"><text id="SvgjsText2114" font-family="微软雅黑" text-anchor="middle" font-size="13px" width="0" fill="#323232" font-weight="400" align="middle" lineHeight="125%" anchor="middle" family="微软雅黑" size="13px" weight="400" font-style="" opacity="1" y="31.208333333333577" transform="rotate(0)"></text></g></g><g id="SvgjsG2115" transform="matrix(-1.8369701987210297e-16,-1,1,-1.8369701987210297e-16,503.02634619082676,918.0994459629627)"><path id="SvgjsPath2116" d="M 0 0L 50.0462633451958 0L 50.0462633451958 83.66666666666715L 0 83.66666666666715Z" stroke="rgba(0,0,0,1)" stroke-width="2" fill-opacity="1" fill="#ffffff"></path><g id="SvgjsG2117"><text id="SvgjsText2118" font-family="微软雅黑" text-anchor="middle" font-size="13px" width="31px" fill="#323232" font-weight="400" align="middle" lineHeight="125%" anchor="middle" family="微软雅黑" size="13px" weight="400" font-style="" opacity="1" y="31.208333333333577" transform="rotate(0)"></text></g></g><g id="SvgjsG2119" transform="matrix(-1.8369701987210297e-16,-1,1,-1.8369701987210297e-16,503.026318460738,877.9200359086552)"><path id="SvgjsPath2120" d="M 0 0L 16.98724792408065 0L 16.98724792408065 83.66666666666715L 0 83.66666666666715Z" stroke="rgba(255,255,255,1)" stroke-width="6" fill-opacity="1" fill="#ffffff"></path><g id="SvgjsG2121"><text id="SvgjsText2122" font-family="微软雅黑" text-anchor="middle" font-size="13px" width="0" fill="#323232" font-weight="400" align="middle" lineHeight="125%" anchor="middle" family="微软雅黑" size="13px" weight="400" font-style="" opacity="1" y="31.208333333333577" transform="rotate(0)"></text></g></g><g id="SvgjsG2123" transform="matrix(-1.8369701987210297e-16,-1,1,-1.8369701987210297e-16,687.1502475580143,918.0994459629627)"><path id="SvgjsPath2124" d="M 0 0L 50.0462633451958 0L 50.0462633451958 83.66666666666715L 0 83.66666666666715Z" stroke="rgba(0,0,0,1)" stroke-width="2" fill-opacity="1" fill="#ffffff"></path><g id="SvgjsG2125"><text id="SvgjsText2126" font-family="微软雅黑" text-anchor="middle" font-size="13px" width="31px" fill="#323232" font-weight="400" align="middle" lineHeight="125%" anchor="middle" family="微软雅黑" size="13px" weight="400" font-style="" opacity="1" y="31.208333333333577" transform="rotate(0)"></text></g></g><g id="SvgjsG2127" transform="matrix(-1.8369701987210297e-16,-1,1,-1.8369701987210297e-16,687.1502808630818,877.9200359086552)"><path id="SvgjsPath2128" d="M 0 0L 16.98724792408065 0L 16.98724792408065 83.66666666666715L 0 83.66666666666715Z" stroke="rgba(255,255,255,1)" stroke-width="6" fill-opacity="1" fill="#ffffff"></path><g id="SvgjsG2129"><text id="SvgjsText2130" font-family="微软雅黑" text-anchor="middle" font-size="13px" width="0" fill="#323232" font-weight="400" align="middle" lineHeight="125%" anchor="middle" family="微软雅黑" size="13px" weight="400" font-style="" opacity="1" y="31.208333333333577" transform="rotate(0)"></text></g></g><g id="SvgjsG2131" transform="matrix(-1.8369701987210297e-16,-1,1,-1.8369701987210297e-16,867.428018554108,918.0994459629627)"><path id="SvgjsPath2132" d="M 0 0L 50.0462633451958 0L 50.0462633451958 83.66666666666715L 0 83.66666666666715Z" stroke="rgba(0,0,0,1)" stroke-width="2" fill-opacity="1" fill="#ffffff"></path><g id="SvgjsG2133"><text id="SvgjsText2134" font-family="微软雅黑" text-anchor="middle" font-size="13px" width="31px" fill="#323232" font-weight="400" align="middle" lineHeight="125%" anchor="middle" family="微软雅黑" size="13px" weight="400" font-style="" opacity="1" y="31.208333333333577" transform="rotate(0)"></text></g></g><g id="SvgjsG2135" transform="matrix(-1.8369701987210297e-16,-1,1,-1.8369701987210297e-16,867.4280518591755,877.9200359086552)"><path id="SvgjsPath2136" d="M 0 0L 16.98724792408065 0L 16.98724792408065 83.66666666666715L 0 83.66666666666715Z" stroke="rgba(255,255,255,1)" stroke-width="6" fill-opacity="1" fill="#ffffff"></path><g id="SvgjsG2137"><text id="SvgjsText2138" font-family="微软雅黑" text-anchor="middle" font-size="13px" width="0" fill="#323232" font-weight="400" align="middle" lineHeight="125%" anchor="middle" family="微软雅黑" size="13px" weight="400" font-style="" opacity="1" y="31.208333333333577" transform="rotate(0)"></text></g></g><g id="SvgjsG2139" transform="matrix(6.123233995736766e-17,1,-1,6.123233995736766e-17,305.01136779785156,898.1448974609375)"><path id="SvgjsPath2140" d="M 0 0L 34 0L 34 84L 0 84Z" stroke="rgba(0,0,0,1)" stroke-width="2" fill-opacity="1" fill="#ffffff"></path><g id="SvgjsG2141"><text id="SvgjsText2142" font-family="微软雅黑" text-anchor="middle" font-size="13px" width="14px" fill="#323232" font-weight="400" align="middle" lineHeight="125%" anchor="middle" family="微软雅黑" size="13px" weight="400" font-style="" opacity="1" y="31.375" transform="rotate(0)"></text></g></g><g id="SvgjsG2143" transform="matrix(6.123233995736766e-17,1,-1,6.123233995736766e-17,305.0113525390625,932.1448974609375)"><path id="SvgjsPath2144" d="M 0 0L 12 0L 12 84L 0 84Z" stroke="rgba(255,255,255,1)" stroke-width="6" fill-opacity="1" fill="#ffffff"></path><g id="SvgjsG2145"><text id="SvgjsText2146" font-family="微软雅黑" text-anchor="middle" font-size="13px" width="0" fill="#323232" font-weight="400" align="middle" lineHeight="125%" anchor="middle" family="微软雅黑" size="13px" weight="400" font-style="" opacity="1" y="31.375" transform="rotate(0)"></text></g></g><g id="SvgjsG2147" transform="matrix(6.123233995736766e-17,1,-1,6.123233995736766e-17,494.0113525390625,898.1448974609375)"><path id="SvgjsPath2148" d="M 0 0L 34 0L 34 84L 0 84Z" stroke="rgba(0,0,0,1)" stroke-width="2" fill-opacity="1" fill="#ffffff"></path><g id="SvgjsG2149"><text id="SvgjsText2150" font-family="微软雅黑" text-anchor="middle" font-size="13px" width="14px" fill="#323232" font-weight="400" align="middle" lineHeight="125%" anchor="middle" family="微软雅黑" size="13px" weight="400" font-style="" opacity="1" y="31.375" transform="rotate(0)"></text></g></g><g id="SvgjsG2151" transform="matrix(6.123233995736766e-17,1,-1,6.123233995736766e-17,494.0113525390625,932.1448974609375)"><path id="SvgjsPath2152" d="M 0 0L 12 0L 12 84L 0 84Z" stroke="rgba(255,255,255,1)" stroke-width="6" fill-opacity="1" fill="#ffffff"></path><g id="SvgjsG2153"><text id="SvgjsText2154" font-family="微软雅黑" text-anchor="middle" font-size="13px" width="0" fill="#323232" font-weight="400" align="middle" lineHeight="125%" anchor="middle" family="微软雅黑" size="13px" weight="400" font-style="" opacity="1" y="31.375" transform="rotate(0)"></text></g></g><g id="SvgjsG2155" transform="matrix(6.123233995736766e-17,1,-1,6.123233995736766e-17,862.0113525390625,898.1448974609375)"><path id="SvgjsPath2156" d="M 0 0L 34 0L 34 84L 0 84Z" stroke="rgba(0,0,0,1)" stroke-width="2" fill-opacity="1" fill="#ffffff"></path><g id="SvgjsG2157"><text id="SvgjsText2158" font-family="微软雅黑" text-anchor="middle" font-size="13px" width="14px" fill="#323232" font-weight="400" align="middle" lineHeight="125%" anchor="middle" family="微软雅黑" size="13px" weight="400" font-style="" opacity="1" y="31.375" transform="rotate(0)"></text></g></g><g id="SvgjsG2159" transform="matrix(6.123233995736766e-17,1,-1,6.123233995736766e-17,862.0113525390625,932.1448974609375)"><path id="SvgjsPath2160" d="M 0 0L 12 0L 12 84L 0 84Z" stroke="rgba(255,255,255,1)" stroke-width="6" fill-opacity="1" fill="#ffffff"></path><g id="SvgjsG2161"><text id="SvgjsText2162" font-family="微软雅黑" text-anchor="middle" font-size="13px" width="0" fill="#323232" font-weight="400" align="middle" lineHeight="125%" anchor="middle" family="微软雅黑" size="13px" weight="400" font-style="" opacity="1" y="31.375" transform="rotate(0)"></text></g></g><g id="SvgjsG2163" transform="matrix(6.123233995736766e-17,1,-1,6.123233995736766e-17,1044.0113525390625,898.1448974609375)"><path id="SvgjsPath2164" d="M 0 0L 34 0L 34 84L 0 84Z" stroke="rgba(0,0,0,1)" stroke-width="2" fill-opacity="1" fill="#ffffff"></path><g id="SvgjsG2165"><text id="SvgjsText2166" font-family="微软雅黑" text-anchor="middle" font-size="13px" width="14px" fill="#323232" font-weight="400" align="middle" lineHeight="125%" anchor="middle" family="微软雅黑" size="13px" weight="400" font-style="" opacity="1" y="31.375" transform="rotate(0)"></text></g></g><g id="SvgjsG2167" transform="matrix(6.123233995736766e-17,1,-1,6.123233995736766e-17,1044.0113525390625,932.1448974609375)"><path id="SvgjsPath2168" d="M 0 0L 12 0L 12 84L 0 84Z" stroke="rgba(255,255,255,1)" stroke-width="6" fill-opacity="1" fill="#ffffff"></path><g id="SvgjsG2169"><text id="SvgjsText2170" font-family="微软雅黑" text-anchor="middle" font-size="13px" width="0" fill="#323232" font-weight="400" align="middle" lineHeight="125%" anchor="middle" family="微软雅黑" size="13px" weight="400" font-style="" opacity="1" y="31.375" transform="rotate(0)"></text></g></g><g id="SvgjsG2171" transform="matrix(-1,1.2246467991473532e-16,-1.2246467991473532e-16,-1,261.51136779785156,296.14488220214844)"><path id="SvgjsPath2172" d="M 0 0L 51 0L 51 84L 0 84Z" stroke="rgba(0,0,0,1)" stroke-width="2" fill-opacity="1" fill="#ffffff"></path><g id="SvgjsG2173"><text id="SvgjsText2174" font-family="微软雅黑" text-anchor="middle" font-size="13px" width="31px" fill="#323232" font-weight="400" align="middle" lineHeight="125%" anchor="middle" family="微软雅黑" size="13px" weight="400" font-style="" opacity="1" y="31.375" transform="rotate(0)"></text></g></g><g id="SvgjsG2175" transform="matrix(-1,1.2246467991473532e-16,-1.2246467991473532e-16,-1,220.51136779785156,296.14488220214844)"><path id="SvgjsPath2176" d="M 0 0L 17 0L 17 84L 0 84Z" stroke="rgba(255,255,255,1)" stroke-width="6" fill-opacity="1" fill="#ffffff"></path><g id="SvgjsG2177"><text id="SvgjsText2178" font-family="微软雅黑" text-anchor="middle" font-size="13px" width="0" fill="#323232" font-weight="400" align="middle" lineHeight="125%" anchor="middle" family="微软雅黑" size="13px" weight="400" font-style="" opacity="1" y="31.375" transform="rotate(0)"></text></g></g><g id="SvgjsG2179" transform="matrix(-1,1.2246467991473532e-16,-1.2246467991473532e-16,-1,261.51136779785156,484.1324768066406)"><path id="SvgjsPath2180" d="M 0 0L 51 0L 51 84L 0 84Z" stroke="rgba(0,0,0,1)" stroke-width="2" fill-opacity="1" fill="#ffffff"></path><g id="SvgjsG2181"><text id="SvgjsText2182" font-family="微软雅黑" text-anchor="middle" font-size="13px" width="31px" fill="#323232" font-weight="400" align="middle" lineHeight="125%" anchor="middle" family="微软雅黑" size="13px" weight="400" font-style="" opacity="1" y="31.375" transform="rotate(0)"></text></g></g><g id="SvgjsG2183" transform="matrix(-1,1.2246467991473532e-16,-1.2246467991473532e-16,-1,220.51136779785156,484.1324768066406)"><path id="SvgjsPath2184" d="M 0 0L 17 0L 17 84L 0 84Z" stroke="rgba(255,255,255,1)" stroke-width="6" fill-opacity="1" fill="#ffffff"></path><g id="SvgjsG2185"><text id="SvgjsText2186" font-family="微软雅黑" text-anchor="middle" font-size="13px" width="0" fill="#323232" font-weight="400" align="middle" lineHeight="125%" anchor="middle" family="微软雅黑" size="13px" weight="400" font-style="" opacity="1" y="31.375" transform="rotate(0)"></text></g></g><g id="SvgjsG2187" transform="matrix(-1,1.2246467991473532e-16,-1.2246467991473532e-16,-1,261.51136779785156,663.5003051757812)"><path id="SvgjsPath2188" d="M 0 0L 51 0L 51 84L 0 84Z" stroke="rgba(0,0,0,1)" stroke-width="2" fill-opacity="1" fill="#ffffff"></path><g id="SvgjsG2189"><text id="SvgjsText2190" font-family="微软雅黑" text-anchor="middle" font-size="13px" width="31px" fill="#323232" font-weight="400" align="middle" lineHeight="125%" anchor="middle" family="微软雅黑" size="13px" weight="400" font-style="" opacity="1" y="31.375" transform="rotate(0)"></text></g></g><g id="SvgjsG2191" transform="matrix(-1,1.2246467991473532e-16,-1.2246467991473532e-16,-1,220.51136779785156,663.5003051757812)"><path id="SvgjsPath2192" d="M 0 0L 17 0L 17 84L 0 84Z" stroke="rgba(255,255,255,1)" stroke-width="6" fill-opacity="1" fill="#ffffff"></path><g id="SvgjsG2193"><text id="SvgjsText2194" font-family="微软雅黑" text-anchor="middle" font-size="13px" width="0" fill="#323232" font-weight="400" align="middle" lineHeight="125%" anchor="middle" family="微软雅黑" size="13px" weight="400" font-style="" opacity="1" y="31.375" transform="rotate(0)"></text></g></g><g id="SvgjsG2195" transform="translate(1003.5113636363637,212.14488636363637)"><path id="SvgjsPath2196" d="M 0 0L 51 0L 51 84L 0 84Z" stroke="rgba(0,0,0,1)" stroke-width="2" fill-opacity="1" fill="#ffffff"></path><g id="SvgjsG2197"><text id="SvgjsText2198" font-family="微软雅黑" text-anchor="middle" font-size="13px" width="31px" fill="#323232" font-weight="400" align="middle" lineHeight="125%" anchor="middle" family="微软雅黑" size="13px" weight="400" font-style="" opacity="1" y="31.375" transform="rotate(0)"></text></g></g><g id="SvgjsG2199" transform="translate(1043.5113636363637,212.14488636363637)"><path id="SvgjsPath2200" d="M 0 0L 17 0L 17 84L 0 84Z" stroke="rgba(255,255,255,1)" stroke-width="6" fill-opacity="1" fill="#ffffff"></path><g id="SvgjsG2201"><text id="SvgjsText2202" font-family="微软雅黑" text-anchor="middle" font-size="13px" width="0" fill="#323232" font-weight="400" align="middle" lineHeight="125%" anchor="middle" family="微软雅黑" size="13px" weight="400" font-style="" opacity="1" y="31.375" transform="rotate(0)"></text></g></g><g id="SvgjsG2203" transform="translate(1003.5113636363637,400.13247779519327)"><path id="SvgjsPath2204" d="M 0 0L 51 0L 51 84L 0 84Z" stroke="rgba(0,0,0,1)" stroke-width="2" fill-opacity="1" fill="#ffffff"></path><g id="SvgjsG2205"><text id="SvgjsText2206" font-family="微软雅黑" text-anchor="middle" font-size="13px" width="31px" fill="#323232" font-weight="400" align="middle" lineHeight="125%" anchor="middle" family="微软雅黑" size="13px" weight="400" font-style="" opacity="1" y="31.375" transform="rotate(0)"></text></g></g><g id="SvgjsG2207" transform="translate(1043.5113636363637,400.13247779519327)"><path id="SvgjsPath2208" d="M 0 0L 17 0L 17 84L 0 84Z" stroke="rgba(255,255,255,1)" stroke-width="6" fill-opacity="1" fill="#ffffff"></path><g id="SvgjsG2209"><text id="SvgjsText2210" font-family="微软雅黑" text-anchor="middle" font-size="13px" width="0" fill="#323232" font-weight="400" align="middle" lineHeight="125%" anchor="middle" family="微软雅黑" size="13px" weight="400" font-style="" opacity="1" y="31.375" transform="rotate(0)"></text></g></g><g id="SvgjsG2211" transform="translate(1003.5113636363637,579.5002938871474)"><path id="SvgjsPath2212" d="M 0 0L 51 0L 51 84L 0 84Z" stroke="rgba(0,0,0,1)" stroke-width="2" fill-opacity="1" fill="#ffffff"></path><g id="SvgjsG2213"><text id="SvgjsText2214" font-family="微软雅黑" text-anchor="middle" font-size="13px" width="31px" fill="#323232" font-weight="400" align="middle" lineHeight="125%" anchor="middle" family="微软雅黑" size="13px" weight="400" font-style="" opacity="1" y="31.375" transform="rotate(0)"></text></g></g><g id="SvgjsG2215" transform="translate(1043.5113636363637,579.5002938871474)"><path id="SvgjsPath2216" d="M 0 0L 17 0L 17 84L 0 84Z" stroke="rgba(255,255,255,1)" stroke-width="6" fill-opacity="1" fill="#ffffff"></path><g id="SvgjsG2217"><text id="SvgjsText2218" font-family="微软雅黑" text-anchor="middle" font-size="13px" width="0" fill="#323232" font-weight="400" align="middle" lineHeight="125%" anchor="middle" family="微软雅黑" size="13px" weight="400" font-style="" opacity="1" y="31.375" transform="rotate(0)"></text></g></g><g id="SvgjsG2219" transform="translate(240.81393853172807,972.5994318181819)"><path id="SvgjsPath2220" d="M 0 0L 207 0L 207 100L 0 100Z" stroke="none" fill="none"></path><g id="SvgjsG2221"><text id="SvgjsText2222" font-family="Impact" text-anchor="start" font-size="40px" width="207px" fill="#4669ea" font-weight="400" align="middle" lineHeight="125%" anchor="start" family="Impact" size="40px" weight="400" font-style="" opacity="1" y="-10" transform="rotate(0)"><tspan id="SvgjsTspan2223" dy="50" x="0"><tspan id="SvgjsTspan2224" style="text-decoration:;">Gradle</tspan></tspan><tspan id="SvgjsTspan2225" dy="50" x="0"><tspan id="SvgjsTspan2226" style="text-decoration:;">ToolChain</tspan></tspan></text></g></g><g id="SvgjsG2227" transform="translate(809.1224747474746,972.5994318181819)"><path id="SvgjsPath2228" d="M 0 0L 224 0L 224 100L 0 100Z" stroke="none" fill="none"></path><g id="SvgjsG2229"><text id="SvgjsText2230" font-family="Impact" text-anchor="end" font-size="40px" width="224px" fill="#4669ea" font-weight="400" align="middle" lineHeight="125%" anchor="end" family="Impact" size="40px" weight="400" font-style="" opacity="1" y="-10" transform="rotate(0)"><tspan id="SvgjsTspan2231" dy="50" x="224"><tspan id="SvgjsTspan2232" style="text-decoration:;">APM</tspan></tspan><tspan id="SvgjsTspan2233" dy="50" x="224"><tspan id="SvgjsTspan2234" style="text-decoration:;">RUNTIME</tspan></tspan></text></g></g><g id="SvgjsG2235" transform="translate(545.9791880464168,88.23221876968535)"><path id="SvgjsPath2236" d="M 0 0L 199 0L 199 104.8217585030419L 0 104.8217585030419Z" stroke="none" fill="none"></path><g id="SvgjsG2237"><text id="SvgjsText2238" font-family="Impact" text-anchor="start" font-size="64px" width="199px" fill="#4669ea" font-weight="400" align="middle" lineHeight="125%" anchor="start" family="Impact" size="64px" weight="400" font-style="" opacity="1" y="-3.589120748479047" transform="rotate(0)"><tspan id="SvgjsTspan2239" dy="80" x="0"><tspan id="SvgjsTspan2240" style="text-decoration:;">ApiHug</tspan></tspan></text></g></g><g id="SvgjsG2241" transform="translate(1082.1556689434585,371.1448863636364)"><path id="SvgjsPath2242" d="M 0 0L 224 0L 224 100L 0 100Z" stroke="none" fill="none"></path><g id="SvgjsG2243"><text id="SvgjsText2244" font-family="Impact" text-anchor="start" font-size="40px" width="224px" fill="#4669ea" font-weight="400" align="middle" lineHeight="125%" anchor="start" family="Impact" size="40px" weight="400" font-style="" opacity="1" y="-10" transform="rotate(0)"><tspan id="SvgjsTspan2245" dy="50" x="0"><tspan id="SvgjsTspan2246" style="text-decoration:;"> </tspan></tspan><tspan id="SvgjsTspan2247" dy="50" x="0"><tspan id="SvgjsTspan2248" style="text-decoration:;">CI/</tspan><tspan id="SvgjsTspan2249" style="text-decoration:;font-size: inherit;">CD</tspan></tspan></text></g></g><g id="SvgjsG2250" transform="translate(544.0113636363637,227.70063995021553)"><path id="SvgjsPath2251" d="M 0 0L 234 0L 234 172L 0 172Z" stroke="none" fill="none"></path><g id="SvgjsG2252"><text id="SvgjsText2253" font-family="Impact" text-anchor="middle" font-size="40px" width="234px" fill="#000000" font-weight="400" align="middle" lineHeight="125%" anchor="middle" family="Impact" size="40px" weight="400" font-style="" opacity="1" y="51" transform="rotate(0)"><tspan id="SvgjsTspan2254" dy="50" x="117"><tspan id="SvgjsTspan2255" style="text-decoration:;">API Lifecycle</tspan></tspan></text></g></g><g id="SvgjsG2256" transform="translate(544.0113636363637,354.40606273588037)"><path id="SvgjsPath2257" d="M 0 0L 234 0L 234 172L 0 172Z" stroke="none" fill="none"></path><g id="SvgjsG2258"><text id="SvgjsText2259" font-family="Impact" text-anchor="middle" font-size="40px" width="234px" fill="#000000" font-weight="400" align="middle" lineHeight="125%" anchor="middle" family="Impact" size="40px" weight="400" font-style="" opacity="1" y="51" transform="rotate(0)"><tspan id="SvgjsTspan2260" dy="50" x="117"><tspan id="SvgjsTspan2261" style="text-decoration:;">Collaboration</tspan></tspan></text></g></g><g id="SvgjsG2262" transform="translate(544.0113636363637,481.1114855215452)"><path id="SvgjsPath2263" d="M 0 0L 234 0L 234 172L 0 172Z" stroke="none" fill="none"></path><g id="SvgjsG2264"><text id="SvgjsText2265" font-family="Impact" text-anchor="middle" font-size="40px" width="234px" fill="#000000" font-weight="400" align="middle" lineHeight="125%" anchor="middle" family="Impact" size="40px" weight="400" font-style="" opacity="1" y="51" transform="rotate(0)"><tspan id="SvgjsTspan2266" dy="50" x="117"><tspan id="SvgjsTspan2267" style="text-decoration:;">Governance</tspan></tspan></text></g></g><g id="SvgjsG2268" transform="translate(49.01990253107118,371.1448863636364)"><path id="SvgjsPath2269" d="M 0 0L 207 0L 207 100L 0 100Z" stroke="none" fill="none"></path><g id="SvgjsG2270"><text id="SvgjsText2271" font-family="Impact" text-anchor="start" font-size="40px" width="207px" fill="#4669ea" font-weight="400" align="middle" lineHeight="125%" anchor="start" family="Impact" size="40px" weight="400" font-style="" opacity="1" y="-10" transform="rotate(0)"><tspan id="SvgjsTspan2272" dy="50" x="0"><tspan id="SvgjsTspan2273" style="text-decoration:;">DSL</tspan></tspan><tspan id="SvgjsTspan2274" dy="50" x="0"><tspan id="SvgjsTspan2275" style="text-decoration:;">Proto</tspan></tspan></text></g></g><g id="SvgjsG2276" transform="translate(644.998543123543,169.93759747099716)"><path id="SvgjsPath2277" d="M 0 0L 84.36263532205396 0L 84.36263532205396 36.784034752866475L 0 36.784034752866475Z" stroke="none" fill="none"></path><g id="SvgjsG2278"><text id="SvgjsText2279" font-family="Impact" text-anchor="start" font-size="24px" width="85px" fill="#4669ea" font-weight="400" align="middle" lineHeight="125%" anchor="start" family="Impact" size="24px" weight="400" font-style="" opacity="1" y="-2.6079826235667625" transform="rotate(0)"><tspan id="SvgjsTspan2280" dy="30" x="0"><tspan id="SvgjsTspan2281" style="text-decoration:;">Platform</tspan></tspan></text></g></g><g id="SvgjsG2282" transform="translate(512.0113636363637,607.8169083072102)"><path id="SvgjsPath2283" d="M 0 0L 297.35388574497244 0L 297.35388574497244 172L 0 172Z" stroke="none" fill="none"></path><g id="SvgjsG2284"><text id="SvgjsText2285" font-family="Impact" text-anchor="middle" font-size="40px" width="298px" fill="#000000" font-weight="400" align="middle" lineHeight="125%" anchor="middle" family="Impact" size="40px" weight="400" font-style="" opacity="1" y="51" transform="rotate(0)"><tspan id="SvgjsTspan2286" dy="50" x="149"><tspan id="SvgjsTspan2287" style="text-decoration:;">Implementation</tspan></tspan></text></g></g><g id="SvgjsG2288" transform="translate(456.0113636363637,357.09943181818164)"><path id="SvgjsPath2289" d="M 0 10.5L 410 10.5" stroke="rgba(136,136,136,1)" stroke-width="1" fill="none"></path><path id="SvgjsPath2290" d="M 0 0L 410 0L 410 21L 0 21Z" stroke="none" fill="none"></path></g><g id="SvgjsG2291" transform="translate(456.0113636363637,486.9789692984608)"><path id="SvgjsPath2292" d="M 0 10.5L 410 10.5" stroke="rgba(136,136,136,1)" stroke-width="1" fill="none"></path><path id="SvgjsPath2293" d="M 0 0L 410 0L 410 21L 0 21Z" stroke="none" fill="none"></path></g><g id="SvgjsG2294" transform="translate(456.0113636363637,616.8585067787402)"><path id="SvgjsPath2295" d="M 0 10.5L 410 10.5" stroke="rgba(136,136,136,1)" stroke-width="1" fill="none"></path><path id="SvgjsPath2296" d="M 0 0L 410 0L 410 21L 0 21Z" stroke="none" fill="none"></path></g><g id="SvgjsG2297" transform="translate(456.0113636363637,746.7380442590194)"><path id="SvgjsPath2298" d="M 0 10.5L 410 10.5" stroke="rgba(136,136,136,1)" stroke-width="1" fill="none"></path><path id="SvgjsPath2299" d="M 0 0L 410 0L 410 21L 0 21Z" stroke="none" fill="none"></path></g><g id="SvgjsG2300" transform="translate(458.0113636363637,300.9165588727044)"><path id="SvgjsPath2301" d="M 0 0L 26 0L 26 26L 0 26Z" stroke="none" fill="url(#SvgjsPattern2302)"></path></g><g id="SvgjsG2304" transform="translate(458.0113636363637,427.0289141178531)"><path id="SvgjsPath2305" d="M 0 0L 26 0L 26 26L 0 26Z" stroke="none" fill="url(#SvgjsPattern2306)"></path></g><g id="SvgjsG2308" transform="translate(458.0113636363637,553.1412693630017)"><path id="SvgjsPath2309" d="M 0 0L 26 0L 26 26L 0 26Z" stroke="none" fill="url(#SvgjsPattern2310)"></path></g><g id="SvgjsG2312" transform="translate(458.0113636363637,679.2536246081503)"><path id="SvgjsPath2313" d="M 0 0L 26 0L 26 26L 0 26Z" stroke="none" fill="url(#SvgjsPattern2314)"></path></g><g id="normal_brand" transform="translate(480.390625,627.0667613636364)"><text id="SvgjsText2317" font-family="Helvetica, Arial, sans-serif" style="transform:rotate(-30deg);opacity: 0.06; color:#000; font-family: Microsoft Yahei;"><tspan id="SvgjsTspan2318" font-size="72" dy="0" x="0"></tspan></text></g></svg>